HIERARCHY
ROOT root
{
	OFFSET 0.000000 0.000000 0.000000
	CHANNELS 6 Xposition Yposition Zposition Zrotation Yrotation Xrotation
	JOINT lhip
	{
		OFFSET 0.058581 -0.082280 -0.017664
		CHANNELS 3 Zrotation Yrotation Xrotation
		JOINT lknee
		{
			OFFSET 0.043451 -0.386469 0.008037
			CHANNELS 3 Zrotation Yrotation Xrotation
			JOINT lankle
			{
				OFFSET -0.014790 -0.426874 -0.037428
				CHANNELS 3 Zrotation Yrotation Xrotation
				JOINT ltoe
				{
					OFFSET 0.041054 -0.060286 0.122042
					CHANNELS 3 Zrotation Yrotation Xrotation
					End Site
					{
						OFFSET 0.000000 0.000000 0.000000
					}
				}
			}
		}
	}
	JOINT rhip
	{
		OFFSET -0.060310 -0.090513 -0.013543
		CHANNELS 3 Zrotation Yrotation Xrotation
		JOINT rknee
		{
			OFFSET -0.043257 -0.383688 -0.004843
			CHANNELS 3 Zrotation Yrotation Xrotation
			JOINT rankle
			{
				OFFSET 0.019056 -0.420046 -0.034562
				CHANNELS 3 Zrotation Yrotation Xrotation
				JOINT rtoe
				{
					OFFSET -0.034840 -0.062106 0.130323
					CHANNELS 3 Zrotation Yrotation Xrotation
					End Site
					{
						OFFSET 0.000000 0.000000 0.000000
					}
				}
			}
		}
	}
	JOINT lowerback
	{
		OFFSET 0.004439 0.124404 -0.038385
		CHANNELS 3 Zrotation Yrotation Xrotation
		JOINT upperback
		{
			OFFSET 0.004488 0.137956 0.026820
			CHANNELS 3 Zrotation Yrotation Xrotation
			JOINT chest
			{
				OFFSET -0.002265 0.056032 0.002855
				CHANNELS 3 Zrotation Yrotation Xrotation
				JOINT lowerneck
				{
					OFFSET -0.013390 0.211636 -0.033468
					CHANNELS 3 Zrotation Yrotation Xrotation
					JOINT upperneck
					{
						OFFSET 0.010113 0.088937 0.050410
						CHANNELS 3 Zrotation Yrotation Xrotation
						End Site
						{
							OFFSET 0.000000 0.000000 0.000000
						}
					}
				}
				JOINT lclavicle
				{
					OFFSET 0.071702 0.114000 -0.018898
					CHANNELS 3 Zrotation Yrotation Xrotation
					JOINT lshoulder
					{
						OFFSET 0.122921 0.045205 -0.019046
						CHANNELS 3 Zrotation Yrotation Xrotation
						JOINT lelbow
						{
							OFFSET 0.255332 -0.015649 -0.022946
							CHANNELS 3 Zrotation Yrotation Xrotation
							JOINT lwrist
							{
								OFFSET 0.265709 0.012698 -0.007375
								CHANNELS 3 Zrotation Yrotation Xrotation
								End Site
								{
									OFFSET 0.000000 0.000000 0.000000
								}
							}
						}
					}
				}
				JOINT rclavicle
				{
					OFFSET -0.082954 0.112472 -0.023707
					CHANNELS 3 Zrotation Yrotation Xrotation
					JOINT rshoulder
					{
						OFFSET -0.113228 0.046853 -0.008472
						CHANNELS 3 Zrotation Yrotation Xrotation
						JOINT relbow
						{
							OFFSET -0.260127 -0.014369 -0.031269
							CHANNELS 3 Zrotation Yrotation Xrotation
							JOINT rwrist
							{
								OFFSET -0.269108 0.006794 -0.006027
								CHANNELS 3 Zrotation Yrotation Xrotation
								End Site
								{
									OFFSET 0.000000 0.000000 0.000000
								}
							}
						}
					}
				}
			}
		}
	}
}
MOTION
Frames: 11
Frame Time: 0.033333
0.138008 -0.101412 0.972029 147.521424 3.666490 90.644886 24.789597 16.152692 5.435663 -0.805573 12.000215 12.861604 -17.672575 2.049961 -2.601921 0.000000 -0.000000 0.000000 3.033374 7.428322 -23.228157 3.885106 0.485210 31.433649 9.484790 11.135839 -7.757255 0.000000 -0.000000 0.000000 -11.295920 -9.168167 18.124714 -0.304172 -21.807664 4.974941 -1.306563 -9.245968 -11.428054 -10.640292 51.934075 4.768741 -1.572571 25.768920 6.576703 15.141666 -60.263676 -25.871811 -0.922962 -70.553086 -19.830978 11.751391 -30.892414 -1.499897 18.119731 -32.827019 2.105742 1.809774 22.682813 -10.822344 32.022972 31.984072 -1.646633 -106.253676 41.513878 -72.434954 -59.407542 17.564254 -5.974206 
0.129974 -0.103370 0.972931 148.449607 3.746185 90.794836 24.510832 16.472047 4.301938 -1.082026 12.435128 13.349949 -16.807436 1.814526 -2.973830 0.000000 -0.000000 0.000000 2.691978 7.009523 -23.463990 3.605242 0.076460 30.867578 9.132760 10.608606 -7.281780 0.000000 -0.000000 0.000000 -11.234891 -8.909866 18.737245 -0.062146 -21.796473 5.155473 -1.121257 -9.254079 -11.118684 -10.909410 51.808119 4.517476 -1.628080 25.301679 6.638699 14.903776 -59.864738 -25.428399 -3.048683 -70.251704 -18.290151 11.291205 -30.168459 -0.322782 16.113576 -30.914220 2.475259 2.253563 22.949176 -10.442893 33.883700 33.028349 -0.803951 -104.332492 41.250978 -71.549536 -59.008766 15.362920 -7.426503 
0.119664 -0.105631 0.973914 149.841189 3.738655 91.131926 23.835982 16.636035 2.889279 -1.362520 12.908690 13.464097 -15.882804 1.621961 -3.772735 0.000000 -0.000000 0.000000 2.010443 6.431313 -23.866412 3.334429 -0.512999 30.172180 9.762268 10.185084 -6.503726 0.000000 -0.000000 0.000000 -11.047220 -8.446184 19.513979 0.332256 -21.704461 5.060900 -0.845391 -9.393600 -10.700150 -10.784403 51.332453 4.375885 -1.520873 25.017054 6.972747 14.031295 -59.755374 -24.401066 -5.808303 -70.062170 -16.235183 10.660431 -29.018221 0.658467 14.591354 -29.385554 2.818237 2.905611 23.077672 -10.208969 36.262588 33.781061 0.607508 -102.219022 40.894718 -70.588495 -58.104784 13.284119 -8.305914 
0.107476 -0.108154 0.974877 151.689528 3.763032 91.683519 23.095474 16.906140 1.086408 -1.757441 13.801187 13.430147 -14.822293 0.945925 -4.256683 0.000000 -0.000000 0.000000 1.105500 5.638560 -24.351146 3.058933 -1.609271 29.179843 10.059700 9.801119 -5.816264 0.000000 -0.000000 0.000000 -10.561372 -8.133704 20.141396 0.851838 -21.653355 4.978045 -0.566734 -9.534569 -10.395747 -10.282736 50.879562 4.958513 -1.687295 24.517474 7.220881 12.554978 -59.187266 -22.925342 -10.616466 -69.929203 -12.266008 10.136389 -27.589540 1.985872 13.399875 -28.023951 2.834583 4.088777 23.398844 -9.287420 38.599191 34.524241 2.053803 -99.989752 40.559273 -69.791511 -56.833467 11.063141 -10.268929 
0.093210 -0.111182 0.975987 154.199968 3.808001 92.158576 22.204783 17.012479 -1.141483 -2.145922 14.188105 13.716534 -13.716038 0.408923 -5.044050 0.000000 -0.000000 0.000000 0.004804 4.440664 -24.536821 2.863123 -3.057853 27.922266 10.438067 9.262555 -5.087857 0.000000 -0.000000 0.000000 -10.002109 -7.540986 20.826656 1.633401 -21.789620 5.395646 -0.114797 -9.599754 -9.946672 -9.769748 50.056942 5.044184 -1.932112 23.285673 7.774447 10.656745 -59.260042 -20.818077 -14.160696 -69.480499 -9.609381 9.412961 -25.896330 3.031741 11.904554 -26.854456 2.896761 5.631923 23.660710 -8.758076 41.045392 35.064938 3.646157 -97.135765 40.397508 -68.364091 -55.759219 9.368224 -11.491256 
0.077108 -0.114299 0.976706 157.376829 3.759953 92.876336 21.006050 16.603212 -4.022408 -2.603938 14.577453 14.349241 -12.519033 -0.185757 -5.828823 0.000000 -0.000000 0.000000 -1.306399 2.970267 -24.703974 2.539760 -5.042389 26.519857 10.721132 8.631141 -4.534006 0.000000 -0.000000 0.000000 -9.194425 -6.795473 21.108573 2.677226 -21.972380 5.972531 0.471615 -9.630424 -9.319892 -9.568557 48.733188 5.494768 -2.448693 22.113847 7.626106 7.834066 -59.244877 -17.787721 -18.414816 -69.240698 -6.892571 9.056917 -24.437392 3.037726 9.603586 -24.908126 2.852246 7.746155 23.840478 -7.082850 42.740743 35.907971 4.498591 -94.230559 40.205160 -67.042477 -54.261928 7.230527 -11.774715 
0.059306 -0.117512 0.977784 161.284256 3.582509 93.261485 19.381594 15.871516 -6.926329 -2.764351 14.394058 14.965006 -11.319050 -0.732276 -6.350072 0.000000 -0.000000 0.000000 -2.802872 1.311219 -24.275951 2.171584 -7.076134 25.135969 10.975505 7.831390 -3.766391 0.000000 -0.000000 0.000000 -8.076643 -5.746565 21.538019 3.809630 -22.228825 7.150504 1.339208 -9.702675 -9.070700 -9.372226 46.486492 5.938982 -2.839907 20.436255 7.554773 5.765820 -59.932893 -15.833447 -24.651947 -67.708640 -2.082821 8.861521 -22.456367 3.365697 9.161135 -23.784176 3.244341 9.702685 24.783947 -5.534171 44.553625 35.218084 5.326480 -91.750169 39.833147 -66.656638 -52.813562 5.001583 -13.028612 
0.040734 -0.120362 0.978836 166.032067 3.240606 93.510356 17.419842 14.670252 -9.871305 -2.777916 13.026565 15.736634 -10.167915 -1.878045 -6.679362 0.000000 -0.000000 0.000000 -4.294632 -0.420790 -23.358844 1.293588 -9.101054 23.909300 11.000866 6.732762 -3.376083 0.000000 -0.000000 0.000000 -6.365701 -5.444430 22.043078 4.850820 -22.211810 7.152545 1.788701 -9.541509 -7.993814 -9.175929 43.188000 6.443131 -3.171592 18.798308 7.595104 2.002326 -59.239091 -12.377364 -33.048035 -66.744522 3.977211 8.869051 -20.429894 4.582199 8.959853 -22.524078 2.803952 11.440310 24.797944 -4.055978 47.752144 34.410737 6.866552 -88.047616 40.179438 -64.654709 -52.556830 3.506813 -14.669759 
0.020064 -0.122553 0.979531 171.825164 2.426073 93.285557 14.842086 12.243093 -12.237135 -2.869008 10.168025 16.235356 -9.239471 -2.910680 -6.942854 0.000000 -0.000000 0.000000 -6.384007 -2.348095 -21.708225 0.328674 -11.158302 23.090134 10.847026 4.598603 -3.183169 0.000000 -0.000000 0.000000 -4.460165 -4.113461 21.723343 6.098215 -22.236255 8.723963 2.646524 -10.011935 -7.367382 -8.692587 39.020645 7.213782 -3.848854 16.480287 7.115238 -1.249022 -59.204951 -9.196318 -39.460852 -64.631259 8.103909 8.432034 -18.385284 5.322436 9.113917 -21.235795 2.780751 11.949773 24.615317 -3.805662 51.737641 32.097467 8.937577 -83.857798 40.362702 -63.015553 -50.970812 0.423896 -16.218625 
-0.001373 -0.124294 0.980249 178.227263 1.145781 92.605075 11.616870 9.529032 -13.678357 -2.913420 6.514880 16.008092 -8.017001 -3.885091 -6.935511 0.000000 -0.000000 0.000000 -9.030116 -4.118094 -19.513005 -0.777278 -13.003535 22.912807 10.541509 2.091639 -3.501069 0.000000 -0.000000 0.000000 -2.132227 -3.184927 20.954698 6.874782 -21.944922 9.932346 3.141045 -10.031106 -6.851668 -8.241729 33.259786 8.747719 -3.848181 14.036491 6.434042 -6.015448 -58.905517 -4.631724 -45.950969 -61.405367 11.990074 7.817722 -16.543123 6.390979 9.953106 -19.534988 3.205375 12.635718 24.661010 -2.850437 56.313707 28.696646 10.521745 -78.700543 40.602512 -61.027925 -50.293508 -1.596328 -17.640107 
-0.022397 -0.124232 0.980849 -174.237878 -0.478850 91.743424 8.044623 6.820445 -14.544732 -3.270133 2.210769 15.751662 -6.996609 -5.545244 -7.036484 0.000000 -0.000000 0.000000 -12.009954 -5.863724 -16.601309 -2.551884 -15.099246 23.410627 10.315363 -0.253501 -3.941224 0.000000 -0.000000 0.000000 0.661590 -3.755726 19.139625 6.645741 -21.920459 10.260425 2.982979 -9.075308 -6.145002 -8.030139 26.207534 12.014248 -3.101194 12.349192 4.886005 -11.555965 -56.811234 1.309552 -53.579516 -56.671431 15.640034 8.112870 -15.017856 7.958978 11.213390 -17.688131 2.505425 13.099056 24.952956 -0.662388 61.694613 24.897564 11.297280 -70.913034 41.539594 -56.767503 -48.424992 -5.017144 -20.404597 
